# Blender 4.3.0
# www.blender.org
mtllib cubeSample.mtl
o Cube
v -0.201045 1.332767 -8.146675
v 0.637606 1.438091 -9.959290
v 0.845856 -0.326597 -7.758720
v 1.684508 -0.221273 -9.571335
v -1.684508 0.221273 -8.897621
v -0.845856 0.326597 -10.710236
v -0.637606 -1.438091 -8.509666
v 0.201045 -1.332767 -10.322281
vn -0.4193 -0.0527 0.9063
vn 0.5235 -0.8297 0.1940
vn -0.7417 -0.5557 -0.3755
vn 0.4193 0.0527 -0.9063
vn 0.7417 0.5557 0.3755
vn -0.5235 0.8297 -0.1940
s 0
usemtl Material
f 5//1 3//1 1//1
f 3//2 8//2 4//2
f 7//3 6//3 8//3
f 2//4 8//4 6//4
f 1//5 4//5 2//5
f 5//6 2//6 6//6
f 5//1 7//1 3//1
f 3//2 7//2 8//2
f 7//3 5//3 6//3
f 2//4 4//4 8//4
f 1//5 3//5 4//5
f 5//6 1//6 2//6
